# xmcd
#
# Track frame offsets:
#	150
#	9707
#	20370
#	33818
#	49861
#	61922
#	75368
#	95627
#	107305
#	120926
#	132233
#	149233
#	164014
#	177540
#	188095
#	205250
#
# Disc length: 2887 seconds
#
# Revision: 0
# Processed by: cddbd v1.5.2PL0 Copyright (c) Steve Scherf et al.
# Submitted via: EasyCDDAExtractor 2010.6.0.0
#
DISCID=d50b4510
DTITLE=Frans Van Aswegen - Good Ole Country Music
DYEAR=1900
DGENRE=country
TTITLE0=Oh Boy
TTITLE1=Grandma's Feather Bed
TTITLE2=C'est La Vie
TTITLE3=The Gambler
TTITLE4=Okie From The Country
TTITLE5=I Recall A Gypsy Woman
TTITLE6=Hantamberge
TTITLE7=Heartaches By The Number
TTITLE8=Tennessee Waltz
TTITLE9=Jumbalaya
TTITLE10=Meisiekind
TTITLE11=Oh Carol
TTITLE12=Osbraai Op Kromdraai
TTITLE13=San Antonio Rose
TTITLE14=Tequlia Shella
TTITLE15=Sy Leer My Om The Jodel
EXTD=
EXTT0=
EXTT1=
EXTT2=
EXTT3=
EXTT4=
EXTT5=
EXTT6=
EXTT7=
EXTT8=
EXTT9=
EXTT10=
EXTT11=
EXTT12=
EXTT13=
EXTT14=
EXTT15=
PLAYORDER=
